<?xml version="1.0"?>
<svg xmlns="http://www.w3.org/2000/svg" xmlns:xlink="http://www.w3.org/1999/xlink" version="1.1" id="Capa_1" x="0px" y="0px" width="512px" height="512px" viewBox="0 0 484.225 484.225" style="enable-background:new 0 0 484.225 484.225;" xml:space="preserve" class=""><g><g>
	<g id="Layer_2_14_">
		<g>
			<path d="M189.993,195.52c-13.124,0-23.766,10.638-23.766,23.747c0,13.092,10.643,23.749,23.766,23.749     c13.091,0,23.733-10.624,23.733-23.749C213.726,206.158,203.084,195.52,189.993,195.52z M194.862,234.397     c-6.727,0-12.171-5.459-12.171-12.201c0-6.71,5.445-12.171,12.171-12.171s12.152,5.461,12.152,12.171     C207.014,228.938,201.589,234.397,194.862,234.397z" data-original="#000000" class="active-path" data-old_color="#ffffff" fill="#ffffff"/>
			<path d="M225.521,382.293c-3.974-3.262-36.007-31.617-39.62-34.816c-2.145-2.135-5.101-3.457-8.368-3.457     c-0.146,0-24.589,0.05-31.102,0.05c-32.864,0-76.872,29.927-76.872,68.067c0,38.145,0,61.029,0,61.029h1.605     c0,0.064,0,0.105,0,0.105h161.163c0,0,0.229-77.969,0.229-77.994C232.557,389.814,229.764,385.775,225.521,382.293z" data-original="#000000" class="active-path" data-old_color="#ffffff" fill="#ffffff"/>
			<path d="M270.5,219.267c0,13.125,10.643,23.749,23.732,23.749c13.125,0,23.768-10.656,23.768-23.749     c0-13.109-10.643-23.747-23.768-23.747C281.142,195.52,270.5,206.158,270.5,219.267z M289.363,210.025     c6.727,0,12.172,5.461,12.172,12.171c0,6.742-5.445,12.201-12.172,12.201s-12.151-5.459-12.151-12.201     C277.212,215.486,282.637,210.025,289.363,210.025z" data-original="#000000" class="active-path" data-old_color="#ffffff" fill="#ffffff"/>
			<path d="M467.594,10.953H242.113H16.632C7.451,10.953,0,18.348,0,27.47v2.951c0,8.083,5.85,14.795,13.567,16.227v0.422h90.673     l-19.284,96.051c-11.969,5.91-24.876,19.813-20.646,52.517l0.047,0.364c1.016,7.865,2.408,18.638,7.113,27.853     c5.842,11.443,15.444,17.944,27.903,18.954c26.643,47.44,80.984,96.303,142.13,96.303c0.203,0,0.406-0.004,0.609-0.008     c0.203,0.003,0.406,0.008,0.609,0.008c61.146,0,115.486-48.861,142.131-96.303c12.459-1.009,22.061-7.51,27.902-18.954     c4.705-9.215,6.098-19.987,7.113-27.853l0.047-0.364c4.23-32.704-8.678-46.606-20.646-52.517L379.984,47.07h90.674v-0.422     c7.717-1.432,13.566-8.144,13.566-16.227V27.47C484.227,18.348,476.775,10.953,467.594,10.953z M385.812,160.67     c4.982,1.29,16.652,4.309,13.041,32.242l-0.047,0.367c-2.49,19.261-5.734,28.428-17.443,28.428c-0.385,0-0.943-0.044-1.537-0.091     l-7.516-0.57l-3.227,6.254c-22.488,43.622-71.625,90.571-126.362,90.571c-0.203,0-0.406-0.005-0.609-0.008     c-0.203,0.003-0.406,0.008-0.609,0.008c-54.737,0-103.874-46.949-126.363-90.571l-3.224-6.254l-7.517,0.57     c-0.593,0.047-1.152,0.091-1.536,0.091c-11.709,0-14.954-9.167-17.443-28.428l-0.047-0.367     c-3.613-27.934,8.057-30.952,13.041-32.242c0,0,32.911-7.221,82.838-24.335c4.213-1.444,8.548-2.959,12.994-4.546     c1.833-0.122,6.231-0.221,12.197-0.295c9.33-0.117,22.493-0.176,35.671-0.177c21.605,0.001,43.168,0.158,47.868,0.472     C347.113,152.179,385.812,160.67,385.812,160.67z" data-original="#000000" class="active-path" data-old_color="#ffffff" fill="#ffffff"/>
			<path d="M337.795,344.069c-6.514,0-30.957-0.05-31.102-0.05c-3.268,0-6.225,1.322-8.369,3.457     c-3.612,3.199-35.646,31.555-39.619,34.816c-4.243,3.482-7.036,7.521-7.036,12.984c0,0.023,0.229,77.994,0.229,77.994h161.162     c0,0,0-0.041,0-0.105h1.605c0,0,0-22.885,0-61.029C414.666,373.996,370.658,344.069,337.795,344.069z" data-original="#000000" class="active-path" data-old_color="#ffffff" fill="#ffffff"/>
		</g>
	</g>
</g></g> </svg>
