<?xml version="1.0" encoding="iso-8859-1"?>
<!-- Generator: Adobe Illustrator 19.0.0, SVG Export Plug-In . SVG Version: 6.00 Build 0)  -->
<svg version="1.1" id="Capa_1" xmlns="http://www.w3.org/2000/svg" xmlns:xlink="http://www.w3.org/1999/xlink" x="0px" y="0px"
	 viewBox="0 0 508 508" style="enable-background:new 0 0 508 508;" xml:space="preserve">
<g>
	<g>
		<path d="M315.306,414.6h-241.6c-7.8,0-14.1,6.3-14.1,14.1c0,7.8,6.3,14.1,14.1,14.1h241.6c7.8,0,14.1-6.3,14.1-14.1
			S323.106,414.6,315.306,414.6z"/>
	</g>
</g>
<g>
	<g>
		<path d="M181.006,327.3h-107.3c-7.8,0-14.1,6.3-14.1,14.1c0,7.7,6.3,14.1,14.1,14.1h107.3c7.8,0,14.1-6.3,14.1-14.1
			C195.106,333.6,188.806,327.3,181.006,327.3z"/>
	</g>
</g>
<g>
	<g>
		<path d="M181.006,239.9h-107.3c-7.8,0-14.1,6.3-14.1,14.1s6.3,14.1,14.1,14.1h107.3c7.8,0,14.1-6.3,14.1-14.1
			S188.806,239.9,181.006,239.9z"/>
	</g>
</g>
<g>
	<g>
		<path d="M275.106,152.6h-201.4c-7.8,0-14.1,6.3-14.1,14.1c0,7.7,6.3,14.1,14.1,14.1h201.4c7.8,0,14.1-6.3,14.1-14.1
			C289.206,158.9,282.906,152.6,275.106,152.6z"/>
	</g>
</g>
<g>
	<g>
		<path d="M315.306,65.2h-155.4c-7.8,0-14.1,6.3-14.1,14.1s6.3,14.1,14.1,14.1h155.4c7.8,0,14.1-6.3,14.1-14.1
			S323.106,65.2,315.306,65.2z"/>
	</g>
</g>
<g>
	<g>
		<path d="M494.106,70.1c-17.8-17.8-50.2-17-67.1,0l-38.1,38.1V40.8c0-22.5-18.3-40.8-40.8-40.8h-233.4c-10.9,0-21.1,4.2-28.8,11.9
			l-74,73.9c-7.7,7.7-11.9,18-11.9,28.8v352.6c0,22.5,18.3,40.8,40.8,40.8h307.4c22.5,0,40.8-18.3,40.8-40.8V242.3l105.2-105.2
			C512.606,118.7,512.606,88.6,494.106,70.1z M89.506,48.2v41.3h-41.3L89.506,48.2z M360.806,467.2h-0.1c0,6.9-5.6,12.5-12.5,12.5
			h-307.4c-6.9,0-12.5-5.6-12.5-12.5V117.7h75.4c7.8,0,14.1-6.3,14.1-14.1V28.2h230.5c6.9,0,12.5,5.6,12.5,12.5v95.6l-148.8,148.8
			c-2.6,2.6-4.1,6.2-4.1,10v47.1c0,7.8,6.3,14.1,14.1,14.1h47.2c3.7,0,7.3-1.5,10-4.1l81.6-81.6V467.2z M474.206,117.2L263.306,328
			h-27.2v-27.2L447.006,90c7.3-7.3,19.9-7.3,27.2,0C481.706,97.5,481.706,109.7,474.206,117.2z"/>
	</g>
</g>
<g>
</g>
<g>
</g>
<g>
</g>
<g>
</g>
<g>
</g>
<g>
</g>
<g>
</g>
<g>
</g>
<g>
</g>
<g>
</g>
<g>
</g>
<g>
</g>
<g>
</g>
<g>
</g>
<g>
</g>
</svg>
